<svg xmlns="http://www.w3.org/2000/svg" width="30" height="30" viewBox="0 0 30 30">
    <g fill="none" fill-rule="evenodd">
        <g>
            <g>
                <g>
                    <g opacity="1.0">
                        <path stroke="#000" stroke-width="2" d="M0 3.782L0 0 3.783 0M16.222 0L20.005 0 20.005 3.782M20.024 16.241L20.024 20.023 16.241 20.023M3.801 20.023L.019 20.023.019 16.241" transform="translate(-657 -207) translate(484 199) translate(158) translate(20 12)"/>
                        <path fill="#000" d="M10.754 0c.298 0 .541.224.541.5v1.988c0 1.408.355 2.797 1.038 4.055.596 1.1.906 2.31.906 3.538v8.884c0 .713-.628 1.29-1.401 1.29H8.249c-.774 0-1.401-.577-1.401-1.29V15.78h3.173v-4.565H6.848V9.569c0-.792.177-1.575.52-2.299l.136-.269.745-1.374c.357-.657.542-1.38.542-2.114V.499c0-.275.243-.499.542-.499z" transform="translate(-657 -207) translate(484 199) translate(158) translate(20 12)"/>
                    </g>
                </g>
            </g>
        </g>
    </g>
</svg>
