<svg xmlns="http://www.w3.org/2000/svg" width="30" height="30" viewBox="0 0 30 30">
    <g fill="none" fill-rule="evenodd" stroke-linecap="round" stroke-linejoin="round">
        <g stroke="#000" stroke-width="1.5">
            <g>
                <g>
                    <path d="M11.053 15c0-2.18 1.768-3.947 3.947-3.947 2.18 0 3.947 1.768 3.947 3.947 0 2.18-1.768 3.947-3.947 3.947-2.18 0-3.947-1.767-3.947-3.947z" transform="translate(-435 -198) translate(425 188) translate(10 10)"/>
                    <path d="M13.412 11.177c-.786-1.298-.978-3.616-.978-5.567 0-2.888 1.149-3.881 2.566-3.881 1.417 0 2.565.993 2.565 3.881 0 1.951-.191 4.269-.977 5.567M16.588 18.823c.786 1.298.977 3.616.977 5.567 0 2.888-1.148 3.881-2.565 3.881s-2.566-.993-2.566-3.881c0-1.951.192-4.269.978-5.567" transform="translate(-435 -198) translate(425 188) translate(10 10)"/>
                    <path d="M16.58 11.174c.362-1.474 1.866-3.248 3.246-4.628 2.043-2.042 3.556-1.932 4.559-.93 1 1.001 1.11 2.516-.932 4.559-1.379 1.378-3.153 2.882-4.626 3.244M13.42 18.826c-.362 1.474-1.866 3.248-3.246 4.628-2.043 2.042-3.557 1.932-4.559.93-1.001-1.001-1.111-2.516.931-4.559 1.38-1.379 3.154-2.882 4.627-3.244" transform="translate(-435 -198) translate(425 188) translate(10 10)"/>
                    <path d="M18.823 13.412c1.298-.786 3.616-.978 5.567-.978 2.888 0 3.881 1.15 3.881 2.566 0 1.417-.993 2.565-3.88 2.565-1.952 0-4.27-.19-5.568-.977M11.176 16.588c-1.298.786-3.615.978-5.566.978-2.888 0-3.881-1.15-3.881-2.566 0-1.417.993-2.565 3.88-2.565 1.952 0 4.27.192 5.567.977" transform="translate(-435 -198) translate(425 188) translate(10 10)"/>
                    <path d="M18.826 16.58c1.474.363 3.247 1.866 4.627 3.246 2.043 2.043 1.933 3.557.93 4.559-1 1.001-2.515 1.111-4.558-.931-1.379-1.38-2.883-3.154-3.244-4.628M11.173 13.42c-1.473-.363-3.247-1.866-4.627-3.246-2.042-2.042-1.932-3.557-.93-4.558 1-1.002 2.516-1.112 4.558.93 1.38 1.38 2.883 3.154 3.246 4.628" transform="translate(-435 -198) translate(425 188) translate(10 10)"/>
                </g>
            </g>
        </g>
    </g>
</svg>
