<svg xmlns="http://www.w3.org/2000/svg" width="30" height="24" viewBox="0 0 30 24">
    <g fill="none" fill-rule="evenodd" stroke-linecap="round" stroke-linejoin="round">
        <g stroke="#000">
            <g>
                <g>
                    <g>
                        <path stroke-width="1.5" d="M11.409 18.353c-.795.975-1.915 1.609-3.215 1.943-3.3.846-6.51-.565-7.889-5.951-.955-3.733.547-9.807 1.56-13.186.351-1.174 1.816-1.55 2.689-.69 2.51 2.476 6.972 7.651 7.928 11.384" transform="translate(-345 -427) translate(335 414) translate(10 13) translate(1 2)"/>
                        <path d="M4.591 4.063c-.455.217-.407 1.776-.073 2.268.3.442.856.582 1.072 1.086.274.64-.195 1.354-.065 2.046.162.871 1.164 1.27 1.33 2.142.074.388-.043.77-.048 1.16-.012 1.133.87 2.033 1.264 3.099.327.882.3 1.92-.074 2.705M5.052 18.08s.28-2.029-.414-3.006c-.695-.978-1.266-2.52-.894-3.149M3.396 9.525s-.72-1.771-.642-2.858M8.773 9.528s.719 1.771.642 2.858" opacity=".5" transform="translate(-345 -427) translate(335 414) translate(10 13) translate(1 2)"/>
                        <path stroke-width="1.5" d="M14.692 11.283c-1.379.86-3.787 1.583-3.727 4.545.061 2.96 2.867 5.83 7.852 5.039 5.05-.802 9.86-7.774 9.104-12.535-.754-4.762-2.51-6.816-5.335-6.58-2.825.237-4.011 2.556-4.3 4.636-.287 2.062-2.339 4.112-3.594 4.895z" transform="translate(-345 -427) translate(335 414) translate(10 13) translate(1 2)"/>
                        <path d="M17.752 11.725s1.738-1.091 1.812-2.595" opacity=".5" transform="translate(-345 -427) translate(335 414) translate(10 13) translate(1 2)"/>
                    </g>
                </g>
            </g>
        </g>
    </g>
</svg>
