<svg xmlns="http://www.w3.org/2000/svg" width="26" height="26" viewBox="0 0 26 26">
    <g fill="none" fill-rule="evenodd">
        <g stroke="#000" stroke-width="1.5">
            <g>
                <g>
                    <path d="M6.018.99H19.25c2.766 0 5.029 2.263 5.029 5.028V19.25c0 2.766-2.263 5.029-5.029 5.029H6.018C3.252 24.279.99 22.016.99 19.25V6.018C.99 3.253 3.252.99 6.018.99z" transform="translate(-167 -308) translate(155 296) translate(12 12)"/>
                    <path d="M1.04 15.428s.21 4.98 4.559 4.98c4.35 0 2.876-.63 4.7-.63 1.824 0 2.245 1.052 4.349 1.052 2.105 0 1.964-1.404 4.911-1.474 2.946-.07 4.42-.701 4.63-1.683" transform="translate(-167 -308) translate(155 296) translate(12 12)"/>
                </g>
            </g>
        </g>
    </g>
</svg>
