<svg xmlns="http://www.w3.org/2000/svg" width="30" height="30" viewBox="0 0 30 30">
    <g fill="none" fill-rule="evenodd" stroke-linecap="round" stroke-linejoin="round">
        <g stroke="#000" stroke-width="1.5">
            <g>
                <g>
                    <path d="M22.027 2.222l.166 3.978s-.577.91-1.09 1.765c-.514.856-.941 2.907-1.368 4.02-.429 1.11-2.31 5.472-5.217 7.694-2.907 2.224-6.23 2.646-10.09 4.105-1.22.46-1.695.902-1.282 2.138.341 1.026 1.026.427 2.137 1.026 3.498 1.883 10.546 2.081 15.905-2.736 6.96-6.257 5.913-12.472 5.552-14.05-.54-2.356-2.02-4.074-1.96-4.188l.046-.37c.196-1.536.18-1.837-.047-3.368-.905-.113-1.07-.35-1.966-.171l-.786.157z" transform="translate(-345 -306) translate(335 296) translate(10 10)"/>
                </g>
            </g>
        </g>
    </g>
</svg>
