<svg xmlns="http://www.w3.org/2000/svg" width="22" height="28" viewBox="0 0 22 28">
    <g fill="none" fill-rule="evenodd">
        <g stroke="#000">
            <g>
                <g>
                    <path stroke-width="1.5" d="M17.505 26.731H4.54c-.418 0-.79-.283-.93-.707l-2.032-3.672-.098-.695c-.671-4.78-.638-10.94.098-15.71l2.034-4.17C3.75 1.313 4.15 1 4.6 1h12.844c.451 0 .85.313.988.777l2.036 4.17c.735 4.77.768 10.93.097 15.71l-.097.695-2.033 3.672c-.14.424-.513.707-.93.707z" transform="translate(-169 -425) translate(155 414) translate(14 11)"/>
                    <path stroke-width="1.2" d="M1.638 6.241L20.589 6.241M1.638 21.632L20.589 21.632M2.715 24.109L19.33 24.109M2.781 3.693L19.149 3.693M6.33 5.967h0c-.923 4.822-.923 11.117 0 15.939M15.532 5.967l.194 1.228c.637 4.028.637 9.454 0 13.483l-.194 1.228M7.33 1.142L6.736 3.551M14.443 1.142L15.037 3.551M14.443 26.589L15.037 24.18M7.33 26.589L6.736 24.18" transform="translate(-169 -425) translate(155 414) translate(14 11)"/>
                </g>
            </g>
        </g>
    </g>
</svg>
