<svg xmlns="http://www.w3.org/2000/svg" width="30" height="30" viewBox="0 0 30 30">
    <g fill="none" fill-rule="evenodd">
        <g stroke="#000" stroke-width="1.5">
            <g>
                <g>
                    <g>
                        <path d="M19.584 4.683c-2.425.812-5.137-.753-5.137-.753s1.221-2.883 3.646-3.696c2.425-.813 5.136.752 5.136.752s-1.22 2.884-3.645 3.697zM8.46 10.106c-.833.362-1.806.35-2.642-.123-1.439-.811-1.925-2.674-1.087-4.16.839-1.487 2.685-2.033 4.124-1.221.72.406 1.2 1.074 1.397 1.827M14.826 9.185c.796-.295 1.7-.256 2.482.186 1.44.812 1.926 2.675 1.086 4.16-.837 1.487-2.683 2.034-4.122 1.222-.926-.523-1.459-1.481-1.495-2.495" transform="translate(-75 -80) translate(65 70) translate(10 10) translate(4.169 1.922)"/>
                        <path d="M18.773 10.257c.796-.295 1.7-.255 2.482.186 1.44.813 1.926 2.675 1.086 4.161-.838 1.486-2.683 2.033-4.122 1.222-.448-.253-.803-.608-1.056-1.02M7.462 3.876c-.159-.835-.66-1.588-1.442-2.028-1.439-.813-3.285-.265-4.124 1.22-.838 1.486-.351 3.35 1.086 4.162.448.252.935.372 1.418.375M14.204 11.168c-.838 1.485-2.684 2.033-4.123 1.22-1.44-.811-1.925-2.674-1.086-4.16.837-1.487 2.684-2.033 4.122-1.222 1.44.812 1.926 2.676 1.087 4.162zM10.658 18.073c-.953 1.69-3.052 2.312-4.688 1.389-1.636-.923-2.189-3.042-1.235-4.731M7.042 23.436c-.815 1.442-2.607 1.973-4.003 1.185-1.396-.787-1.869-2.596-1.054-4.038" transform="translate(-75 -80) translate(65 70) translate(10 10) translate(4.169 1.922)"/>
                        <path d="M19.255 16.161c.054.611-.07 1.25-.398 1.83-.84 1.488-2.686 2.034-4.124 1.222-.818-.461-1.329-1.263-1.461-2.142" transform="translate(-75 -80) translate(65 70) translate(10 10) translate(4.169 1.922)"/>
                        <path d="M15.205 18.903c.051.567-.065 1.16-.37 1.699-.777 1.38-2.49 1.887-3.827 1.134-.76-.429-1.234-1.173-1.357-1.989M11.061 22.04c-.22.524-.595.99-1.106 1.32-1.307.841-3.007.464-3.799-.84-.45-.743-.51-1.628-.235-2.406M1.336 16.553c-.335.46-.54 1.022-.559 1.629-.044 1.553 1.158 2.815 2.685 2.817.869 0 1.656-.405 2.181-1.041M1.645 11.252c-.512.25-.96.655-1.264 1.195-.778 1.379-.326 3.109 1.01 3.862.758.428 1.64.449 2.403.133" transform="translate(-75 -80) translate(65 70) translate(10 10) translate(4.169 1.922)"/>
                        <path d="M2.107 6.486c-.551.268-1.034.706-1.362 1.288-.837 1.485-.352 3.348 1.087 4.16.819.462 1.77.484 2.59.144M14.7 14.726c.022.563-.109 1.143-.408 1.674-.839 1.486-2.685 2.033-4.124 1.22-1.439-.81-1.925-2.673-1.086-4.16.27-.477.643-.859 1.075-1.128" transform="translate(-75 -80) translate(65 70) translate(10 10) translate(4.169 1.922)"/>
                        <path d="M8.578 15.22c-.86.425-1.893.436-2.772-.06C4.367 14.35 3.881 12.485 4.72 11c.27-.479.643-.86 1.075-1.13" transform="translate(-75 -80) translate(65 70) translate(10 10) translate(4.169 1.922)"/>
                    </g>
                </g>
            </g>
        </g>
    </g>
</svg>
