<svg xmlns="http://www.w3.org/2000/svg" width="30" height="30" viewBox="0 0 30 30">
    <g fill="none" fill-rule="evenodd">
        <g>
            <g>
                <g>
                    <path stroke="#000" stroke-linecap="round" stroke-linejoin="round" stroke-width="1.5" d="M4.343 26.125s.914 1.335 2.671.773c1.758-.562 2.39-.632 4.36-.352 1.967.282 7.17-.14 10.123-2.741 2.953-2.601 5.454-6.363 5.384-10.23-.07-3.866-.549-6.679.366-7.804.913-1.125-.141-2.812-.563-3.093-.421-.281-1.125-.985-2.53-.422-1.407.562-2.672.773-4.43.562-1.757-.21-6.594-.877-11.655 3.834-5.062 4.71-4.007 11.81-3.796 13.216.211 1.406-.199 2.82-.492 3.586-.352.913-.141 2.038.562 2.67z" transform="translate(-255 -198) translate(245 188) translate(10 10)"/>
                    <path fill="#000" d="M17.628 21.69c0 .551-.447.998-.998.998-.554 0-1-.447-1-.999 0-.553.446-1 1-1 .551 0 .998.447.998 1M20.245 19.824c0 .551-.446.999-1 .999-.551 0-.998-.448-.998-1 0-.55.447-.998.998-.998.554 0 1 .447 1 .999M17.574 18.748c0 .553-.447 1-.999 1-.551 0-.999-.447-.999-1 0-.551.448-.998 1-.998.55 0 .998.447.998.998" transform="translate(-255 -198) translate(245 188) translate(10 10)"/>
                </g>
            </g>
        </g>
    </g>
</svg>
