<svg xmlns="http://www.w3.org/2000/svg" width="24" height="30" viewBox="0 0 24 30">
    <g fill="none" fill-rule="evenodd">
        <g stroke="#000">
            <g>
                <g>
                    <g>
                        <path stroke-width="1.5" d="M22.101 16.492c0 6.103-4.947 11.05-11.05 11.05C4.947 27.542 0 22.595 0 16.492 0 10.389 4.947 5.44 11.05 5.44c6.104 0 11.051 4.948 11.051 11.05z" transform="translate(-168 -198) translate(155 188) translate(13 10) translate(.822 1.445)"/>
                        <path stroke-linecap="round" stroke-linejoin="round" stroke-width="1.5" d="M11.493 1.502s.706 2.224-.442 3.94M7.782 1.944S12.288 1.767 14.054 0" transform="translate(-168 -198) translate(155 188) translate(13 10) translate(.822 1.445)"/>
                        <g stroke-linecap="round" stroke-linejoin="round" stroke-width=".5" opacity=".5">
                            <path d="M6.234 0L16.708 10.475M3.228 3.005L13.703 13.48M0 6.234L10.474 16.709M16.809 6.234L6.334 16.709M13.804 3.229L3.33 13.704M10.576 0L.102 10.475" transform="translate(-168 -198) translate(155 188) translate(13 10) translate(.822 1.445) translate(2.778 8.294)"/>
                        </g>
                    </g>
                </g>
            </g>
        </g>
    </g>
</svg>
