<svg xmlns="http://www.w3.org/2000/svg" width="26" height="34" viewBox="0 0 26 34">
    <g fill="none" fill-rule="evenodd">
        <g stroke="#000" stroke-width="1.5">
            <g>
                <g>
                    <g>
                        <path d="M7.591 5.973L2.531 5.973 0 10.356 2.531 14.739 7.591 14.739 10.121 10.356zM17.447 0L12.387 0 9.856 4.383 12.387 8.765 17.447 8.765 19.977 4.383zM17.789 11.537L12.728 11.537 10.198 15.919 12.728 20.302 17.789 20.302 20.319 15.919zM15.843 26.97c0 1.723-1.397 3.12-3.121 3.12-1.723 0-3.121-1.397-3.121-3.12 0-1.87 1.833-4.973 2.689-6.32.206-.323.672-.329.885-.012.866 1.286 2.668 4.218 2.668 6.331zM8.897 19.029c0 .965-.782 1.747-1.747 1.747-.964 0-1.748-.782-1.748-1.747 0-1.048 1.026-2.784 1.506-3.54.116-.18.377-.184.496-.006.484.72 1.493 2.361 1.493 3.546z" transform="translate(-347 -537) translate(335 529) translate(12 8) translate(1 3)"/>
                    </g>
                </g>
            </g>
        </g>
    </g>
</svg>
