<svg xmlns="http://www.w3.org/2000/svg" width="26" height="26" viewBox="0 0 26 26">
    <g fill="none" fill-rule="evenodd">
        <g stroke="#000" stroke-width="1.5">
            <g>
                <g>
                    <path d="M21.763 25H4.235c-.919 0-1.663-.765-1.663-1.709l.652-13.377c0-.487.003-1.286.003-1.286l-.687-.665c-.39-.379-.587-.923-.53-1.471l.01-.105C2.334 3.324 4.846 1 7.842 1H18.17c2.99 0 5.5 2.315 5.82 5.37.055.523-.119 1.043-.475 1.42l-.8.847s-.05.771-.05 1.231l.76 13.423c0 .944-.744 1.709-1.662 1.709z" transform="translate(-77 -424) translate(65 412) translate(12 12)"/>
                </g>
            </g>
        </g>
    </g>
</svg>
