<svg xmlns="http://www.w3.org/2000/svg" width="24" height="32" viewBox="0 0 24 32">
    <g fill="none" fill-rule="evenodd">
        <g stroke="#000" stroke-width="1.5">
            <g>
                <g>
                    <g>
                        <path d="M6.235 3.937C4.265 3.08 3.453.58 3.453.58S5.835-.532 7.805.323c1.97.856 2.78 3.357 2.78 3.357s-2.38 1.112-4.35.257z" transform="translate(-528 -79) translate(515 70) translate(13 9) translate(1.942 1)"/>
                        <path stroke-linecap="round" stroke-linejoin="round" d="M10.587 29.225c4.602 2.01 8.194.112 9.877-4.02 1.684-4.132-1.459-8.042-2.581-9.605-1.122-1.563.112-3.574-1.908-6.813-2.02-3.238-5.163-1.004-5.163-1.004h-.673S6.996 5.549 4.976 8.787c-2.02 3.24-.786 5.25-1.908 6.813-1.123 1.563-4.266 5.473-2.582 9.605 1.684 4.132 5.275 6.03 9.877 4.02h.224zM10.713 7.559s-.923-4.377 2.24-6.273" transform="translate(-528 -79) translate(515 70) translate(13 9) translate(1.942 1)"/>
                    </g>
                </g>
            </g>
        </g>
    </g>
</svg>
