<svg xmlns="http://www.w3.org/2000/svg" width="30" height="30" viewBox="0 0 30 30">
    <g fill="none" fill-rule="evenodd">
        <g>
            <g>
                <g>
                    <g stroke="#000" stroke-width="1.5">
                        <path d="M20.118 22.464s1.083-3.49-3.13-3.73c0 0-1.203-3.612-5.295-3.612-4.093 0-4.333 3.972-4.333 3.972s-3.13 0-3.01 3.611M17.108 15.363l.827-1.878c.279-.634 1.005-.94 1.653-.695l3.024 1.143c.68.257 1.018 1.02.751 1.697l-1.32 3.344M19.558 17.177L24.585 4.967M24.57 5.253l3.337-2.939c.37-.326.249-.932-.22-1.09L24.527.16c-.468-.158-.932.25-.834.735l.877 4.358z" transform="translate(-525 -306) translate(515 296) translate(10 10) translate(1 5)"/>
                        <path stroke-linecap="round" stroke-linejoin="round" d="M4.924 0s.85 3.681 3.399 5.097c2.548 1.416 2.831 4.815 2.548 6.09M.11 2.832S-.88 6.23 3.083 7.363c3.965 1.133 5.098 2.973 5.098 4.106" transform="translate(-525 -306) translate(515 296) translate(10 10) translate(1 5)"/>
                    </g>
                    <path fill="#000" d="M17.241 28.442c-.39.391-1.024.391-1.413 0-.391-.39-.391-1.023 0-1.413.39-.391 1.022-.391 1.413 0 .391.39.391 1.022 0 1.413M13.907 25.107c-.391.39-1.025.39-1.416 0-.39-.391-.39-1.024 0-1.414.391-.39 1.025-.39 1.416 0 .39.39.39 1.023 0 1.414" opacity=".5" transform="translate(-525 -306) translate(515 296) translate(10 10)"/>
                </g>
            </g>
        </g>
    </g>
</svg>
