<svg xmlns="http://www.w3.org/2000/svg" width="24" height="30" viewBox="0 0 24 30">
    <g fill="none" fill-rule="evenodd">
        <g>
            <g>
                <g>
                    <path stroke="#000" stroke-linecap="round" stroke-linejoin="round" stroke-width="1.5" d="M2.105 15.021c0-6.207 4.556-5.496 10.175-5.496 5.62 0 10.175-.71 10.175 5.496C22.455 20.328 17.9 29 12.28 29 6.66 29 2.105 20.15 2.105 15.021z" transform="translate(-78 -198) translate(65 188) translate(13 10)"/>
                    <path fill="#000" d="M12.52 15.17c-.432 0-.784-.497-.784-1.11 0-.612.352-1.109.785-1.109.433 0 .785.497.785 1.11 0 .612-.352 1.108-.785 1.108zM7.162 15.806c-.433 0-.784-.497-.784-1.11 0-.612.351-1.109.784-1.109.434 0 .785.497.785 1.11 0 .612-.351 1.109-.785 1.109zM17.526 15.806c-.434 0-.785-.497-.785-1.11 0-.612.351-1.109.785-1.109.433 0 .785.497.785 1.11 0 .612-.352 1.109-.785 1.109zM15.056 20.496c-.433 0-.784-.496-.784-1.109 0-.612.35-1.109.784-1.109.434 0 .786.497.786 1.11 0 .612-.352 1.108-.786 1.108zM9.857 20.496c-.433 0-.785-.496-.785-1.109 0-.612.352-1.109.785-1.109.434 0 .786.497.786 1.11 0 .612-.352 1.108-.786 1.108zM12.36 25.342c-.433 0-.785-.496-.785-1.109 0-.612.352-1.109.786-1.109.433 0 .785.497.785 1.11 0 .612-.352 1.108-.785 1.108z" transform="translate(-78 -198) translate(65 188) translate(13 10)"/>
                    <path stroke="#000" stroke-width="1.5" d="M7.593 5.404c1.772 1.51 4.592 1.107 4.592 1.107s-.053-2.848-1.825-4.356C8.588.646 5.77 1.049 5.77 1.049s.053 2.848 1.824 4.355z" transform="translate(-78 -198) translate(65 188) translate(13 10)"/>
                </g>
            </g>
        </g>
    </g>
</svg>
