<svg xmlns="http://www.w3.org/2000/svg" width="30" height="30" viewBox="0 0 30 30">
    <g fill="none" fill-rule="evenodd">
        <g stroke="#000" stroke-width="1.5">
            <g>
                <g>
                    <g>
                        <path d="M23.02 8.116c3.22 4.218 3.635 11.51-.379 14.575-4.014 3.063-10.939.74-14.159-3.48C5.262 14.994 5.906 9.09 9.92 6.026c4.015-3.064 9.879-2.128 13.1 2.09zM5 6.027c-2.513.49-5-1.417-5-1.417s1.587-2.703 4.1-3.194c2.514-.49 5.001 1.417 5.001 1.417s-1.587 2.703-4.1 3.194z" transform="translate(-255 -80) translate(245 70) translate(10 10) translate(1.982 2.785)"/>
                        <path stroke-linecap="round" stroke-linejoin="round" d="M8.461 0s1.935 3.694 1.46 6.025c0 0 7.967.143 9.207 9.728" transform="translate(-255 -80) translate(245 70) translate(10 10) translate(1.982 2.785)"/>
                    </g>
                </g>
            </g>
        </g>
    </g>
</svg>
