<svg xmlns="http://www.w3.org/2000/svg" width="32" height="24" viewBox="0 0 32 24">
    <g fill="none" fill-rule="evenodd">
        <g>
            <g>
                <g>
                    <g>
                        <path stroke="#000" stroke-width="1.4" d="M25.653 8.953L29.093 7.949M.009 13.918s-.357 4.093 3.436 3.192c1.095-.26 3.163-1.155 3.163-1.155M16.867 7.35c.632-.353 1.366-.668 2.167-.915 1.714-.528 3.491-.17 4.643.204.698.227.958 1.065.51 1.644-.738.957-2.001 2.253-3.716 2.78-.77.239-1.525.39-2.224.457M12.621 7.543c-.702-.431-1.552-.817-2.497-1.108-1.713-.528-3.49-.17-4.643.204-.698.227-.958 1.065-.51 1.644.739.957 2.002 2.253 3.717 2.78.88.272 1.739.43 2.518.482" transform="translate(-74 -542) translate(65 529) translate(9 13) translate(1 2)"/>
                        <path stroke="#000" stroke-width="1.4" d="M13.502 8.421c.295.153.658.02.781-.289.195-.488.898-.463 1.056.039.1.316.453.477.758.347.148-.064.293-.055.42-.005.409-.97.661-2.27.661-3.706 0-1.787-.868-3.373-1.567-4.358-.424-.599-1.304-.599-1.727 0-.699.985-1.568 2.57-1.568 4.358 0 1.402.241 2.676.634 3.638.156-.097.356-.125.552-.024zM14.359 13.11c-.112-.065-.206-.166-.252-.311-.1-.317-.452-.477-.757-.346-.486.208-.965-.306-.72-.773.154-.293.019-.656-.29-.778-.027-.01-.045-.027-.068-.04-.927.53-1.935 1.442-2.814 2.622-1.076 1.445-1.323 3.248-1.35 4.456-.015.71.687 1.229 1.365 1.009 1.152-.374 2.813-1.132 3.89-2.577.581-.782 1.033-1.582 1.343-2.335l-.014-.03c-.137-.308-.246-.608-.333-.897zM19.88 13.276c-.79-1.04-1.68-1.87-2.522-2.407-.066.092-.162.168-.29.208-.318.1-.479.45-.348.755.21.483-.306.96-.775.717-.295-.154-.658-.02-.781.289-.029.073-.072.131-.12.181-.081.324-.193.665-.338 1.018.314.703.749 1.442 1.297 2.163 1.09 1.435 2.758 2.176 3.913 2.54.68.215 1.376-.312 1.355-1.021-.037-1.208-.302-3.008-1.391-4.443z" transform="translate(-74 -542) translate(65 529) translate(9 13) translate(1 2)"/>
                        <path stroke="#000" stroke-width="1.4" d="M12.95 8.445c-.218.136-.345.411-.224.693.132.305-.03.656-.347.755-.477.149-.52.78-.107 1.013M17.358 10.912c.192-.273.115-.7-.251-.845-.31-.121-.444-.483-.29-.777.17-.324-.012-.665-.3-.778M16.517 8.513c-.127-.05-.272-.059-.42.004-.305.132-.657-.029-.758-.346-.158-.502-.86-.528-1.056-.04-.123.309-.487.443-.782.29-.195-.101-.395-.073-.55.024M14.27 13.064s.37.309.751-.012" transform="translate(-74 -542) translate(65 529) translate(9 13) translate(1 2)"/>
                        <path fill="#000" d="M13.937 10.487c0-.446.362-.807.81-.807.447 0 .81.36.81.807 0 .446-.363.808-.81.808-.448 0-.81-.362-.81-.808" transform="translate(-74 -542) translate(65 529) translate(9 13) translate(1 2)"/>
                        <path stroke="#000" stroke-width="1.4" d="M.716 7.205s-2.54 4.114 2.115 4.436c.474.033 1.43.05 2.868.05M24.292 11.69L30 11.69" transform="translate(-74 -542) translate(65 529) translate(9 13) translate(1 2)"/>
                    </g>
                </g>
            </g>
        </g>
    </g>
</svg>
