<svg xmlns="http://www.w3.org/2000/svg" width="24" height="30" viewBox="0 0 24 30">
    <g fill="none" fill-rule="evenodd">
        <g stroke="#000" stroke-width="1.5">
            <g>
                <g>
                    <path d="M18.401 9.573c0-1.587-1.635-4.272-3.498-4.272-1.341 0-2.136-.989-2.895-2.685-.82-1.83-2.882-1.407-3.322-1.36-.064.006-.099.09-.072.161.207.56.767 2.632-1.617 4.006-1.777 1.024-1.452 2.25-.88 3.089.404.591 1.248 1.132 2.117 1.185 3.437.208 4.363-1.23 8.371-.89 2.292.195 3.56 2.639 3.639 4.29M3.888 12.612c0-.21.315-3.694 2.212-4.18M18.772 27.162H5.445c-.589 0-1.096-.476-1.216-1.14L2.22 14.885c-.16-.889.429-1.723 1.216-1.723H20.78c.788 0 1.376.834 1.216 1.723l-2.007 11.137c-.12.664-.628 1.14-1.216 1.14z" transform="translate(-258 -306) translate(245 296) translate(13 10)"/>
                </g>
            </g>
        </g>
    </g>
</svg>
