<svg xmlns="http://www.w3.org/2000/svg" width="30" height="30" viewBox="0 0 30 30">
    <g fill="none" fill-rule="evenodd" stroke-linejoin="round">
        <g stroke="#000">
            <g>
                <g>
                    <path stroke-linecap="round" stroke-width="1.4" d="M17.213 1.041L17.182 1H12.62c-1.672 2.356-4.413 3.715-7.298 3.618l-1.33-.044L3 8.15l.294.222c4.94 3.735 4.97 11.155.058 14.928l-.054.041 2.082 3.873.564-.136c3.038-.732 6.243-.082 8.756 1.775l.201.148.45-.304c2.606-1.757 5.856-2.265 8.872-1.384l2.48-3.972c-5.03-3.8-4.953-11.387.151-15.085L27 8.149l-1.29-3.675-1.128.059c-2.887.15-5.655-1.162-7.37-3.492z" transform="translate(-435 -306) translate(425 296) translate(10 10)"/>
                    <path stroke-dasharray="1 1" d="M16.759 3.5h-3.571C12.044 5.15 9.874 6.326 7.9 6.258l-1.87-.064L5.5 7.682l.467.362c4.912 3.8 4.941 11.35.058 15.189l.97 1.959 1.914-.472c1.943-.48 3.994-.054 5.602 1.162l.155.118.35-.242c2.025-1.398 4.552-1.802 6.897-1.102l1.223-1.63c-3.908-3.023-3.716-11.944.25-14.887l.114-.084-.432-1.566-.877.046c-2.243.119-4.1-1.182-5.432-3.035z" opacity=".5" transform="translate(-435 -306) translate(425 296) translate(10 10)"/>
                </g>
            </g>
        </g>
    </g>
</svg>
