<svg xmlns="http://www.w3.org/2000/svg" width="28" height="28" viewBox="0 0 28 28">
    <g fill="none" fill-rule="evenodd" stroke-linecap="round" stroke-linejoin="round">
        <g stroke="#000" stroke-width="1.5">
            <g>
                <g>
                    <path d="M11.817 26.445s6.03.77 8.468-1.412c2.438-2.181 3.594-4.106 3.978-5.132.385-1.026 2.694-5.518 1.668-8.469-1.026-2.952-5.646-8.34-5.646-8.34L13.1 1.421 5.914 4.504l-4.107 6.543.386 7.058 9.624 8.34z" transform="translate(-526 -199) translate(515 188) translate(11 11)"/>
                    <path d="M4.099 7.97s-.9 3.273.49 4.5c1.391 1.227 6.465 5.319 8.347 5.4 1.883.083 4.91.245 4.91.245L23 12.305l3.027-.326" transform="translate(-526 -199) translate(515 188) translate(11 11)"/>
                    <path d="M17.846 18.116l2.782 3.11-3.845 2.127-2.456-.49-1.718.735-5.483-4.254S5.08 14.434 4.59 12.47M20.628 21.225L23.656 21.061M16.782 23.352L18.419 25.48M12.609 23.598L11.873 26.053" transform="translate(-526 -199) translate(515 188) translate(11 11)"/>
                </g>
            </g>
        </g>
    </g>
</svg>
