<svg xmlns="http://www.w3.org/2000/svg" width="30" height="30" viewBox="0 0 30 30">
    <g fill="none" fill-rule="evenodd">
        <g stroke="#000" stroke-width="1.5">
            <g>
                <g>
                    <path d="M19.78 5.596c-2.347.941-5.112-.448-5.112-.448s1.039-2.914 3.385-3.856c2.346-.941 5.111.448 5.111.448s-1.038 2.915-3.384 3.856z" transform="translate(-345 -80) translate(335 70) translate(10 10)"/>
                    <path stroke-linecap="round" stroke-linejoin="round" d="M17.199 22.492s4.914-11.592-4.41-13.987C3.465 6.111 2.99 16.608 3.905 19.4c.913 2.791 1.953 5.865 9.387 7.755 0 0 1.296.413 1.816.9.164.155.408.166.567.007.417-.416 1.067-.88 1.524-1.033 0 0 5.16-2.03 6.952-4.228 1.556-1.91 3.197-4.247 2.633-8.195-.265-1.856-1.064-3.635-2.497-4.841-1.648-1.388-4.42-2.46-8.6-.376" transform="translate(-345 -80) translate(335 70) translate(10 10)"/>
                </g>
            </g>
        </g>
    </g>
</svg>
