<svg xmlns="http://www.w3.org/2000/svg" xmlns:xlink="http://www.w3.org/1999/xlink" width="30" height="30" viewBox="0 0 30 30">
    <defs>
        <path id="4l1idhu1ea" d="M0.574 0L7.462 0 7.462 6.314 0.574 6.314z"/>
    </defs>
    <g fill="none" fill-rule="evenodd">
        <g>
            <g>
                <g>
                    <g opacity=".5">
                        <path fill="#000" d="M16.395 8.677c.138-1.714.66-3.372 1.524-4.842l1.221-2.079c.17-.287.082-.662-.197-.837l-1.322-.83c-.28-.175-.643-.084-.812.205l-1.85 3.148c-.451.766-1.068 1.414-1.804 1.892l-1.538 1.001c-.89.58-1.64 1.367-2.188 2.298l-.174.296h7.106c.01-.085.028-.167.034-.252" transform="translate(-585 -207) translate(484 199) translate(86) translate(20 8)"/>
                        <path stroke="#000" stroke-linejoin="round" stroke-width="2" d="M19.464 11.607c.088 0 .136.04.179.06l-2.156 13.237c-.005.033-.067.096-.173.096H2.304c-.103 0-.167-.063-.178-.139L0 11.671c.021-.024.067-.064.155-.064h19.309" transform="translate(-585 -207) translate(484 199) translate(86) translate(20 8)"/>
                        <g transform="translate(-585 -207) translate(484 199) translate(86) translate(20 8) translate(5.804 15.179)">
                            <mask id="4uyq14lrjb" fill="#fff">
                                <use xlink:href="#4l1idhu1ea"/>
                            </mask>
                            <path fill="#000" d="M6.628.237c-1.256-.73-2.274.426-2.524.759-.028.037-.082.037-.11-.001C3.752.66 2.789-.485 1.459.288c-1.435.834-.972 2.669.298 4.144.393.455.846.855 1.328 1.214l.813.605c.115.085.273.084.386-.005l.652-.507c.672-.532 1.277-1.148 1.757-1.86.862-1.275 1.2-2.907-.065-3.642" mask="url(#4uyq14lrjb)"/>
                        </g>
                    </g>
                </g>
            </g>
        </g>
    </g>
</svg>
